<svg width="96" height="96" xmlns="http://www.w3.org/2000/svg" xmlns:xlink="http://www.w3.org/1999/xlink" xml:space="preserve" overflow="hidden"><g transform="translate(-592 -203)"><path d="M674 257.911 674 224 610 224 610 219.9C609.995 215.539 606.461 212.005 602.1 212L602 212C601.448 212 601 212.448 601 213 601 213.552 601.448 214 602 214L602.1 214C605.357 214.003 607.997 216.643 608 219.9L608 270C608.005 273.702 610.891 276.76 614.586 276.979 611.531 278.865 610.583 282.87 612.469 285.924 614.354 288.979 618.359 289.927 621.414 288.041 624.469 286.156 625.417 282.151 623.531 279.096 623.007 278.247 622.294 277.53 621.448 277L658.548 277C655.505 278.905 654.584 282.916 656.489 285.959 658.395 289.001 662.406 289.923 665.448 288.018 668.49 286.112 669.412 282.101 667.507 279.059 666.985 278.226 666.281 277.522 665.448 277L673 277C673.552 277 674 276.552 674 276 674 275.448 673.552 275 673 275L615 275C612.24 274.997 610.003 272.76 610 270L610 263.911ZM662 287C659.515 287 657.5 284.985 657.5 282.5 657.5 280.015 659.515 278 662 278 664.485 278 666.5 280.015 666.5 282.5 666.497 284.984 664.484 286.997 662 287ZM618 287C615.515 287 613.5 284.985 613.5 282.5 613.5 280.015 615.515 278 618 278 620.485 278 622.5 280.015 622.5 282.5 622.497 284.984 620.484 286.997 618 287ZM610 238 624 238 624 248 610 248ZM656 248 642 248 642 238 656 238ZM658 238 672 238 672 248 658 248ZM642 250 656 250 656 257.589 642 258.9ZM640 259.089 626 260.4 626 250 640 250ZM642 236 642 226 656 226 656 236ZM640 236 626 236 626 226 640 226ZM640 238 640 248 626 248 626 238ZM610 250 624 250 624 260.589 610 261.9ZM658 257.4 658 250 672 250 672 256.089ZM672 236 658 236 658 226 672 226ZM624 226 624 236 610 236 610 226Z"/></g></svg>